<svg height="78" width="361" xmlns="http://www.w3.org/2000/svg"><g fill="none" fill-rule="evenodd"><path d="M0 5l14.707 6.651v53.38H38.07v12.16H0zm95.56 41.39c0-5.286-1.53-9.44-4.589-12.465s-6.64-4.537-10.743-4.537c-4.102 0-7.666 1.495-10.69 4.485C66.511 36.863 65 41 65 46.285c0 5.284 1.53 9.457 4.59 12.516 3.059 3.06 6.623 4.59 10.69 4.59s7.632-1.513 10.691-4.538 4.59-7.18 4.59-12.464zM50 47.01c0-8.692 2.573-15.802 7.718-21.33 5.146-5.528 11.682-8.292 19.61-8.292 7.926 0 13.976 3.268 18.148 9.804v-8.97l14.602 7.07v51.296l-14.602-6.736v-3.546c-4.38 7.023-10.465 10.534-18.253 10.534s-14.272-2.798-19.452-8.396S50 55.702 50 47.01zm188.56-.62c0-5.286-1.53-9.44-4.589-12.465s-6.64-4.537-10.743-4.537c-4.102 0-7.666 1.495-10.69 4.485C209.511 36.863 208 41 208 46.285c0 5.284 1.53 9.457 4.59 12.516 3.059 3.06 6.623 4.59 10.69 4.59 4.068 0 7.632-1.513 10.691-4.538s4.59-7.18 4.59-12.464zm-45.56.62c0-8.692 2.573-15.802 7.718-21.33s11.682-8.292 19.61-8.292 13.976 3.268 18.148 9.804v-8.97l14.602 7.07v51.296l-14.602-6.736v-3.546c-4.38 7.023-10.465 10.534-18.253 10.534s-14.272-2.798-19.452-8.396C195.59 62.846 193 55.702 193 47.01zm-70.111-27.603h15.645l14.915 45.163 14.811-45.163h15.646l-21.278 57.784h-18.462z" fill="#fff"/><path d="M302.79 0l10.42 10.79-10.79 10.42L292 10.42zm34 0l10.42 10.79-10.79 10.42L326 10.42zm-59.207 76.784l18.55.32 19.725-27.477 7.114 13.824 6.85-6.514 14.216 20.024 16.917-.208-40.587-58.724z" fill="#eb3670"/></g></svg>